<mxfile host="app.diagrams.net" modified="2022-04-20T12:43:54.813Z" agent="5.0 (X11)" etag="sPW6_V2M0DqO5RjRFEF4" version="17.4.6" type="github">
  <diagram id="eD1OK1vks3cDN-6VqT9p" name="Page-1">
    <mxGraphModel dx="1038" dy="519" grid="1" gridSize="10" guides="1" tooltips="1" connect="1" arrows="1" fold="1" page="1" pageScale="1" pageWidth="850" pageHeight="1100" math="0" shadow="0">
      <root>
        <mxCell id="0" />
        <mxCell id="1" parent="0" />
      </root>
    </mxGraphModel>
  </diagram>
</mxfile>
